<svg width="32" height="32" viewBox="0 0 32 32" fill="none" xmlns="http://www.w3.org/2000/svg">
<g clip-path="url(#clip0_574_630)">
<path d="M28.875 3.125H3.09375V28.9062H28.875V3.125Z" fill="black"/>
<mask id="mask0_574_630" style="mask-type:luminance" maskUnits="userSpaceOnUse" x="6" y="5" width="20" height="22">
<path d="M25.4257 5.94531H6.54297V26.0869H25.4257V5.94531Z" fill="white"/>
</mask>
<g mask="url(#mask0_574_630)">
<path d="M14.0781 22.1616C14.0146 22.0977 13.9389 22.047 13.8556 22.0124C13.7723 21.9778 13.6829 21.96 13.5926 21.96C13.5022 21.96 13.4129 21.9778 13.3295 22.0124C13.2462 22.047 13.1705 22.0977 13.107 22.1616L11.9785 23.2626C11.7767 23.464 11.6635 23.7369 11.6635 24.0213C11.6635 24.3057 11.7767 24.5786 11.9785 24.78L13.0755 25.9079C13.1398 25.9736 13.2167 26.0258 13.3017 26.0612C13.3867 26.0965 13.478 26.1145 13.5701 26.1138C13.7483 26.1148 13.9196 26.0456 14.0466 25.9213C14.1109 25.8577 14.1619 25.782 14.1968 25.6987C14.2316 25.6153 14.2496 25.526 14.2496 25.4357C14.2496 25.3454 14.2316 25.2561 14.1968 25.1727C14.1619 25.0894 14.1109 25.0137 14.0466 24.9501L13.1475 24.0549L14.0466 23.1597C14.1178 23.0982 14.1753 23.0227 14.2158 22.938C14.2561 22.8533 14.2786 22.7612 14.2815 22.6675C14.2844 22.5738 14.2679 22.4804 14.2329 22.3934C14.1979 22.3063 14.1452 22.2274 14.0781 22.1616Z" fill="white"/>
<path d="M18.9068 22.1616C18.8432 22.0977 18.7676 22.047 18.6842 22.0124C18.6009 21.9778 18.5115 21.96 18.4212 21.96C18.3309 21.96 18.2415 21.9778 18.1582 22.0124C18.0748 22.047 17.9992 22.0977 17.9357 22.1616C17.8069 22.2907 17.7346 22.4652 17.7346 22.6472C17.7346 22.8291 17.8069 23.0037 17.9357 23.1329L18.8349 24.028L17.9357 24.9232C17.8082 25.0521 17.7368 25.2257 17.7368 25.4066C17.7368 25.5875 17.8082 25.761 17.9357 25.89C17.9999 25.9557 18.0768 26.0078 18.1618 26.0432C18.2468 26.0786 18.3381 26.0965 18.4302 26.0959C18.6083 26.0969 18.7797 26.0277 18.9068 25.9034L20.0398 24.8024C20.2405 24.6004 20.353 24.3278 20.353 24.0437C20.353 23.7596 20.2405 23.487 20.0398 23.285L18.9068 22.1616Z" fill="white"/>
<path d="M16.5419 21.9645C16.4545 21.9408 16.3633 21.9345 16.2734 21.946C16.1836 21.9575 16.097 21.9865 16.0184 22.0315C15.9399 22.0764 15.871 22.1363 15.8158 22.2077C15.7606 22.2792 15.7201 22.3608 15.6967 22.4479L14.9368 25.223C14.8886 25.3981 14.9122 25.5851 15.0024 25.7429C15.0926 25.9007 15.2421 26.0163 15.4179 26.0645C15.4776 26.0732 15.5381 26.0732 15.5978 26.0645C15.7502 26.0719 15.9007 26.0284 16.0253 25.9407C16.15 25.8531 16.2417 25.7265 16.2856 25.5811L17.0409 22.806C17.0645 22.7181 17.0703 22.6264 17.0579 22.5363C17.0455 22.4462 17.0152 22.3593 16.9687 22.281C16.9222 22.2027 16.8606 22.1343 16.7873 22.08C16.714 22.0256 16.6306 21.9864 16.5419 21.9645Z" fill="white"/>
<path d="M25.4033 13.1736C25.4033 13.1199 25.4033 13.0661 25.4033 13.008C25.4033 12.9498 25.4033 12.8469 25.4033 12.7618V12.6589C25.3993 12.3686 25.3677 12.0794 25.3089 11.795C25.2474 11.4883 25.1556 11.1884 25.0347 10.8998L25.0032 10.8327C24.9582 10.7342 24.9088 10.6358 24.8593 10.5373L24.7739 10.3806L24.6615 10.1971C24.5118 9.96173 24.3435 9.73871 24.1579 9.5302L24.068 9.43621L23.8927 9.26165L23.7443 9.12738L23.605 9.00205C23.214 8.68185 22.7777 8.42092 22.3101 8.22771C21.5422 7.90215 20.6995 7.79225 19.8734 7.90993C19.1673 6.96245 18.1372 6.30504 16.9777 6.06179C15.8181 5.81854 14.6092 6.00626 13.5791 6.58954C13.4942 6.63293 13.4117 6.68074 13.3318 6.73276L13.2239 6.80885C13.1116 6.88494 12.9991 6.96551 12.8957 7.05056L12.7069 7.22063C12.6574 7.2654 12.6035 7.31015 12.5585 7.35938C12.3837 7.53113 12.2214 7.71512 12.073 7.90993C11.2468 7.79271 10.4042 7.9026 9.6362 8.22771C9.1681 8.42177 8.73169 8.68426 8.34139 9.00652L8.20201 9.12738C8.15406 9.16617 8.1046 9.21092 8.05365 9.26165C8.00269 9.31237 7.94425 9.37057 7.87831 9.43621L7.78839 9.53468C7.60671 9.73937 7.44137 9.95786 7.29384 10.1882C7.25788 10.2508 7.21741 10.309 7.18145 10.3762C7.14548 10.4433 7.123 10.4746 7.09602 10.5283C7.06905 10.582 6.99711 10.7253 6.95216 10.8237L6.92518 10.8909C6.80276 11.1794 6.70939 11.4792 6.64644 11.7861C6.58615 12.0703 6.55304 12.3595 6.54753 12.6499V12.7618C6.54753 12.8469 6.54753 12.9275 6.54753 13.008C6.54291 13.0631 6.54291 13.1185 6.54753 13.1736C6.54753 13.3213 6.579 13.4645 6.60148 13.6212C6.60358 13.63 6.60358 13.6392 6.60148 13.648C6.78324 14.6386 7.27065 15.5482 7.99587 16.2501C8.72108 16.952 9.64805 17.4115 10.6478 17.5645H10.7017V19.4757C10.7017 19.8947 10.8689 20.2966 11.1666 20.5929C11.4642 20.8892 11.8679 21.0557 12.2888 21.0557H19.3788C19.7997 21.0557 20.2034 20.8892 20.501 20.5929C20.7987 20.2966 20.9658 19.8947 20.9658 19.4757V17.5734C21.0985 17.5639 21.2306 17.5474 21.3615 17.5242H21.393C22.3677 17.3552 23.2675 16.8946 23.9727 16.2037C24.6779 15.5128 25.1549 14.6245 25.3404 13.657C25.3404 13.657 25.3404 13.657 25.3404 13.6301C25.3674 13.469 25.3898 13.3213 25.4033 13.1736ZM19.3788 19.704H12.3293C12.3011 19.7045 12.2732 19.6996 12.247 19.6892C12.2209 19.6789 12.197 19.6635 12.1769 19.644C12.1568 19.6243 12.1409 19.6009 12.1299 19.5751C12.1191 19.5493 12.1135 19.5216 12.1135 19.4936V17.551C12.9901 17.4236 13.8146 17.0582 14.4963 16.4948L15.0223 16.0471L14.1456 14.9997L13.6196 15.4474C13.1266 15.8466 12.5337 16.1045 11.9046 16.1936C11.2754 16.2826 10.6338 16.1993 10.0486 15.9527C9.46348 15.706 8.95685 15.3053 8.58318 14.7936C8.20952 14.2819 7.98293 13.6785 7.92776 13.0483V12.9722C7.92323 12.8902 7.92323 12.808 7.92776 12.726C7.92776 12.6857 7.92776 12.6409 7.92776 12.6007C7.92776 12.4888 7.92776 12.3769 7.95924 12.2695C7.99071 12.162 7.95924 12.1755 7.98172 12.1307C8.07981 11.6541 8.27327 11.202 8.55056 10.8014C8.82785 10.4007 9.18331 10.0598 9.59574 9.79876C10.1366 9.46724 10.7589 9.29068 11.3941 9.28851C12.3191 9.28969 13.2057 9.65601 13.8597 10.3071C14.5138 10.9582 14.8817 11.841 14.8829 12.7618V13.4466H16.2541V12.7618C16.2536 11.8454 15.9922 10.9479 15.5006 10.1732C15.0088 9.39854 14.3068 8.77832 13.4757 8.38438C13.5027 8.35304 13.5296 8.31723 13.5611 8.28591C13.8484 8.01448 14.1798 7.79351 14.5412 7.63242C14.8885 7.48964 15.2552 7.39914 15.6293 7.36387C16.2586 7.29895 16.8939 7.40542 17.4672 7.67193C18.0406 7.93844 18.5304 8.35498 18.8844 8.87705C19.2385 9.39913 19.4435 10.0071 19.4775 10.6362C19.5115 11.2652 19.3733 11.8916 19.0776 12.4485L18.7584 13.0528L19.9678 13.6928L20.2915 13.0885C20.7446 12.236 20.931 11.2679 20.8265 10.309C20.7918 9.96128 20.7164 9.61878 20.6017 9.28851C21.2273 9.294 21.8396 9.46884 22.3731 9.79428C22.7855 10.0553 23.141 10.3962 23.4182 10.7969C23.6955 11.1975 23.889 11.6496 23.9871 12.1263C23.9972 12.1721 24.0046 12.2183 24.0096 12.265C24.0267 12.3731 24.0373 12.4823 24.041 12.5917C24.041 12.6365 24.041 12.6812 24.041 12.7215C24.041 12.7618 24.041 12.8872 24.041 12.9677C24.0387 12.993 24.0387 13.0185 24.041 13.0438C23.9811 13.6905 23.7434 14.3084 23.354 14.8295C22.9646 15.3506 22.4386 15.7548 21.8336 15.9979H21.8021C21.7122 16.0337 21.6222 16.0606 21.5323 16.0874L21.384 16.1277L21.2086 16.1635L21.0108 16.1949H20.8489H20.6826H20.3904H20.2285C19.5417 16.136 18.8877 15.8759 18.3492 15.4474L17.8187 14.9997L16.9195 16.0561L17.4501 16.5037C18.0636 17.0051 18.7903 17.3508 19.5677 17.5108V19.4757C19.5727 19.5308 19.5556 19.5857 19.5203 19.6284C19.4849 19.6712 19.4341 19.6983 19.3788 19.704Z" fill="white"/>
</g>
</g>
<defs>
<clipPath id="clip0_574_630">
<rect width="25.7812" height="25.7812" fill="white" transform="translate(3.09375 3.125)"/>
</clipPath>
</defs>
</svg>
