<svg width="670" height="188" viewBox="0 0 670 188" fill="none" xmlns="http://www.w3.org/2000/svg">
<g clip-path="url(#clip0_193_328)">
<path d="M70.1825 151.361C69.5907 150.765 68.8863 150.291 68.11 149.968C67.3338 149.645 66.5011 149.479 65.66 149.479C64.8189 149.479 63.9862 149.645 63.21 149.968C62.4337 150.291 61.7293 150.765 61.1375 151.361L50.6269 161.638C48.7474 163.518 47.6919 166.064 47.6919 168.719C47.6919 171.374 48.7474 173.921 50.6269 175.801L60.8444 186.329C61.4427 186.942 62.1592 187.429 62.9507 187.759C63.7423 188.089 64.5926 188.256 65.4506 188.251C67.11 188.26 68.7057 187.614 69.8894 186.454C70.4882 185.86 70.9635 185.154 71.2878 184.376C71.6121 183.598 71.779 182.764 71.779 181.921C71.779 181.079 71.6121 180.244 71.2878 179.467C70.9635 178.689 70.4882 177.982 69.8894 177.388L61.5144 169.033L69.8894 160.677C70.5516 160.103 71.0878 159.399 71.4641 158.608C71.8405 157.817 72.049 156.958 72.0766 156.083C72.1041 155.208 71.95 154.337 71.6241 153.524C71.2982 152.712 70.8074 151.975 70.1825 151.361Z" fill="white"/>
<path d="M115.156 151.361C114.564 150.765 113.86 150.291 113.084 149.968C112.307 149.645 111.475 149.479 110.634 149.479C109.793 149.479 108.96 149.645 108.184 149.968C107.407 150.291 106.703 150.765 106.111 151.361C104.912 152.566 104.239 154.195 104.239 155.894C104.239 157.592 104.912 159.221 106.111 160.427L114.486 168.782L106.111 177.138C104.925 178.341 104.26 179.962 104.26 181.65C104.26 183.338 104.925 184.958 106.111 186.162C106.71 186.775 107.426 187.262 108.218 187.592C109.009 187.922 109.859 188.089 110.717 188.083C112.377 188.093 113.973 187.447 115.156 186.287L125.709 176.01C127.578 174.125 128.627 171.58 128.627 168.928C128.627 166.277 127.578 163.732 125.709 161.847L115.156 151.361Z" fill="white"/>
<path d="M93.13 149.523C92.3161 149.301 91.4664 149.243 90.6298 149.35C89.7931 149.457 88.9859 149.728 88.2544 150.147C87.523 150.567 86.8817 151.126 86.3674 151.793C85.8531 152.46 85.4759 153.222 85.2575 154.035L78.1806 179.937C77.7313 181.571 77.9509 183.317 78.7911 184.789C79.6313 186.262 81.0234 187.342 82.6612 187.791C83.2166 187.873 83.7809 187.873 84.3362 187.791C85.7558 187.861 87.1578 187.454 88.3189 186.636C89.48 185.819 90.3334 184.637 90.7431 183.279L97.7781 157.377C97.9978 156.556 98.0515 155.701 97.936 154.859C97.8205 154.018 97.5381 153.208 97.1054 152.477C96.6727 151.746 96.0982 151.108 95.4157 150.601C94.7331 150.093 93.9561 149.727 93.13 149.523Z" fill="white"/>
<path d="M175.666 67.4713C175.666 66.9699 175.666 66.4686 175.666 65.9255C175.666 65.3824 175.666 64.4215 175.666 63.6277V62.6669C175.628 59.9575 175.334 57.2577 174.786 54.6037C174.214 51.741 173.359 48.9421 172.232 46.2482L171.939 45.6215C171.52 44.7024 171.059 43.7833 170.599 42.8642L169.803 41.4019L168.756 39.6891C167.363 37.492 165.794 35.4103 164.066 33.4642L163.229 32.5869L161.596 30.9575L160.214 29.7042L158.916 28.5344C155.274 25.5457 151.21 23.1102 146.856 21.3068C139.704 18.2681 131.854 17.2422 124.159 18.3406C117.583 9.49695 107.989 3.36078 97.1887 1.09028C86.3884 -1.18022 75.1286 0.572016 65.5343 6.0162C64.7436 6.42122 63.9749 6.86743 63.2312 7.35306L62.2262 8.06327C61.1793 8.7735 60.1325 9.52553 59.1693 10.3193L57.4106 11.9068C56.95 12.3246 56.4475 12.7424 56.0287 13.2019C54.4003 14.805 52.8889 16.5223 51.5062 18.3406C43.8112 17.2465 35.9628 18.2722 28.81 21.3068C24.45 23.1181 20.3853 25.5682 16.75 28.5762L15.4518 29.7042C15.0052 30.0663 14.5445 30.484 14.07 30.9575C13.5954 31.431 13.051 31.9741 12.4368 32.5869L11.5993 33.5059C9.90721 35.4165 8.36712 37.4559 6.99308 39.6055C6.65808 40.1904 6.28121 40.7335 5.94621 41.3602C5.61121 41.9868 5.40184 42.2793 5.15059 42.7806C4.89934 43.2819 4.22934 44.6188 3.81059 45.5379L3.55933 46.1646C2.41912 48.8573 1.54945 51.6562 0.963088 54.5202C0.401599 57.1729 0.0931335 59.8726 0.0418329 62.5833V63.6277C0.0418329 64.4215 0.0418329 65.1735 0.0418329 65.9255C-0.00108624 66.4399 -0.00108624 66.9569 0.0418329 67.4713C0.0418329 68.8499 0.334953 70.1868 0.544328 71.6491C0.56392 71.7315 0.56392 71.8173 0.544328 71.8997C2.2373 81.1457 6.777 89.6353 13.5317 96.1872C20.2865 102.739 28.9203 107.027 38.2318 108.455H38.7343V126.294C38.7343 130.206 40.2917 133.957 43.0638 136.723C45.836 139.488 49.5958 141.042 53.5162 141.042H119.553C123.473 141.042 127.233 139.488 130.005 136.723C132.778 133.957 134.335 130.206 134.335 126.294V108.539C135.571 108.45 136.801 108.297 138.02 108.079H138.313C147.391 106.502 155.773 102.203 162.341 95.7543C168.909 89.3058 173.353 81.0141 175.079 71.9833C175.079 71.9833 175.079 71.9833 175.079 71.7326C175.331 70.2286 175.54 68.8499 175.666 67.4713ZM119.553 128.425H53.8931C53.6311 128.431 53.3707 128.384 53.127 128.288C52.8834 128.192 52.6615 128.048 52.4743 127.865C52.287 127.682 52.1383 127.464 52.0368 127.223C51.9353 126.982 51.883 126.723 51.8831 126.461V108.33C60.0487 107.141 67.7279 103.73 74.0768 98.4704L78.9762 94.2926L70.8106 84.5166L65.9112 88.6944C61.3197 92.4206 55.7975 94.8285 49.9377 95.6594C44.0778 96.4904 38.1018 95.7129 32.6515 93.4107C27.2011 91.1085 22.4824 87.3685 19.0021 82.5923C15.5217 77.8161 13.4113 72.1842 12.8975 66.3015V65.5913C12.8552 64.8259 12.8552 64.0588 12.8975 63.2935C12.8975 62.9175 12.8975 62.4997 12.8975 62.1237C12.8975 61.0793 12.8975 60.0348 13.1906 59.0322C13.4837 58.0295 13.1906 58.1548 13.4 57.737C14.3136 53.2882 16.1155 49.0684 18.6982 45.329C21.2809 41.5895 24.5916 38.407 28.4331 35.9709C33.471 32.8764 39.2669 31.2284 45.1831 31.2082C53.7979 31.2193 62.0567 34.6384 68.1483 40.7159C74.2399 46.7933 77.667 55.0329 77.6781 63.6277V70.0197H90.45V63.6277C90.4442 55.0741 88.0106 46.6971 83.4307 39.4662C78.8509 32.2352 72.3121 26.4462 64.5712 22.7691C64.8225 22.4766 65.0737 22.1424 65.3668 21.85C68.0422 19.3165 71.1289 17.254 74.4956 15.7504C77.7301 14.4177 81.1454 13.5729 84.6293 13.2437C90.4914 12.6378 96.4083 13.6316 101.748 16.1192C107.088 18.6068 111.651 22.4947 114.949 27.3677C118.246 32.2407 120.156 37.9159 120.472 43.7871C120.789 49.6584 119.502 55.5052 116.747 60.7033L113.774 66.3433L125.039 72.3175L128.054 66.6775C132.274 58.72 134.01 49.684 133.037 40.7335C132.714 37.4878 132.011 34.2909 130.943 31.2082C136.77 31.2595 142.473 32.8913 147.442 35.929C151.283 38.3651 154.594 41.5477 157.177 45.2872C159.759 49.0266 161.561 53.2465 162.475 57.6953C162.568 58.1229 162.638 58.5552 162.684 58.9904C162.844 60.0001 162.942 61.0186 162.977 62.0402C162.977 62.4579 162.977 62.8757 162.977 63.2517C162.977 63.6277 162.977 64.7975 162.977 65.5495C162.955 65.7858 162.955 66.0235 162.977 66.2598C162.419 72.2964 160.205 78.063 156.578 82.9269C152.951 87.7909 148.052 91.5642 142.417 93.833H142.124C141.286 94.1673 140.449 94.4179 139.611 94.6686L138.229 95.0446L136.596 95.3789L134.754 95.6713H133.246H131.697H128.975H127.467C121.07 95.1221 114.979 92.6943 109.964 88.6944L105.022 84.5166L96.6475 94.3762L101.589 98.554C107.303 103.235 114.071 106.461 121.312 107.954V126.294C121.359 126.809 121.2 127.321 120.871 127.72C120.542 128.119 120.068 128.372 119.553 128.425Z" fill="white"/>
<path d="M213.144 128.049V48.6709H228.47V128.049H213.144ZM223.948 101.77V89.2371H244.048C246.583 89.2956 249.091 88.7059 251.334 87.5242C253.357 86.3843 255.024 84.7067 256.149 82.678C257.315 80.4786 257.905 78.0215 257.866 75.534C257.909 73.0195 257.318 70.5345 256.149 68.3064C255.016 66.2843 253.351 64.6088 251.334 63.4603C249.091 62.2786 246.583 61.6889 244.048 61.7474H223.948V48.7127H242.414C248.043 48.5812 253.644 49.5315 258.913 51.5118C263.261 53.1332 267.004 56.0504 269.633 59.8674C272.323 64.1514 273.651 69.1465 273.444 74.1971V76.1607C273.654 81.2175 272.31 86.2175 269.591 90.4904C266.924 94.2884 263.175 97.1993 258.829 98.846C253.585 100.81 248.015 101.76 242.414 101.645L223.948 101.77ZM261.342 128.049L237.138 93.7909H254.307L279.432 128.049H261.342Z" fill="white"/>
<path d="M310.587 130.138C306.041 130.23 301.528 129.347 297.354 127.548C293.752 125.937 290.55 123.555 287.974 120.571C285.504 117.709 283.6 114.406 282.363 110.837C281.081 107.3 280.43 103.568 280.437 99.8072V97.7601C280.422 93.931 281.074 90.1285 282.363 86.5219C283.571 82.9392 285.478 79.6308 287.974 76.7876C290.535 73.9116 293.674 71.6056 297.187 70.0196C301.147 68.2951 305.429 67.4265 309.749 67.4712C315.351 67.2662 320.887 68.7198 325.662 71.649C329.856 74.2784 333.212 78.0465 335.335 82.5112C337.518 87.0316 338.636 91.9905 338.601 97.0081V102.397H286.844V93.2481H329.431L324.782 97.7601C324.857 94.4998 324.317 91.2547 323.191 88.193C322.248 85.6694 320.516 83.5159 318.25 82.0517C315.745 80.4933 312.823 79.7353 309.875 79.8792C306.922 79.7938 304.009 80.5785 301.5 82.1352C299.125 83.729 297.286 86.0003 296.224 88.6526C294.98 91.9044 294.383 95.3667 294.465 98.8463C294.411 102.184 294.993 105.502 296.182 108.622C297.247 111.33 299.099 113.658 301.5 115.307C304.202 117.004 307.354 117.848 310.545 117.73C313.683 117.862 316.793 117.094 319.506 115.516C321.616 114.324 323.2 112.386 323.945 110.085H337.806C336.996 113.935 335.289 117.542 332.822 120.613C330.334 123.681 327.127 126.091 323.484 127.631C319.408 129.356 315.014 130.21 310.587 130.138Z" fill="white"/>
<path d="M373.064 130.138C368.517 130.247 364.001 129.363 359.832 127.548C356.272 125.925 353.102 123.56 350.536 120.613C348.062 117.776 346.169 114.483 344.966 110.92C343.755 107.383 343.133 103.671 343.124 99.9326V97.8855C343.109 94.0191 343.746 90.1777 345.008 86.5219C346.23 82.9274 348.167 79.6164 350.703 76.7877C353.302 73.8993 356.485 71.5927 360.041 70.0197C364.273 68.2688 368.82 67.4025 373.401 67.4743C377.982 67.5462 382.499 68.5547 386.674 70.4375C390.573 72.3335 393.908 75.214 396.347 78.7931C398.84 82.4296 400.288 86.6771 400.534 91.0758H385.92C385.633 88.1713 384.275 85.4766 382.109 83.5139C379.586 81.4029 376.353 80.3277 373.064 80.5059C370.087 80.3662 367.146 81.2026 364.689 82.8873C362.436 84.5282 360.718 86.795 359.748 89.4046C357.646 95.5387 357.646 102.196 359.748 108.33C360.674 110.951 362.366 113.236 364.606 114.889C367.078 116.539 370.008 117.372 372.981 117.27C375.296 117.336 377.593 116.849 379.681 115.85C381.489 114.968 383.034 113.628 384.161 111.965C385.293 110.29 386.01 108.371 386.255 106.366H400.869C400.698 110.857 399.245 115.205 396.682 118.9C394.172 122.479 390.784 125.356 386.841 127.255C382.533 129.264 377.818 130.25 373.064 130.138Z" fill="white"/>
<path d="M403.214 80.7564V69.5182H426.455V80.7564H403.214ZM416.907 62.5413C415.714 62.6399 414.514 62.482 413.387 62.0784C412.26 61.6749 411.233 61.0349 410.375 60.2017C408.94 58.5823 408.189 56.4709 408.281 54.3111C408.211 52.1797 408.96 50.1022 410.375 48.504C411.248 47.6967 412.279 47.0793 413.404 46.6909C414.528 46.3025 415.721 46.1517 416.907 46.2479C418.013 46.1212 419.133 46.2401 420.186 46.5962C421.24 46.9523 422.202 47.5366 423.002 48.3074C423.803 49.0782 424.423 50.0163 424.817 51.0543C425.211 52.0923 425.37 53.2045 425.282 54.3111C425.386 56.4652 424.651 58.5759 423.231 60.2017C422.397 61.0076 421.404 61.6318 420.316 62.0346C419.227 62.4373 418.066 62.6099 416.907 62.5413ZM411.422 128.049V69.5599H426.455V128.049H411.422Z" fill="white"/>
<path d="M439.394 149.648V69.5182H451.287V94.5849H449.444C449.549 89.3705 450.822 84.2457 453.171 79.5867C455.177 75.7875 458.247 72.6523 462.007 70.5626C465.795 68.5568 470.03 67.5365 474.318 67.5964C478.196 67.5281 482.042 68.3126 485.582 69.8942C488.897 71.362 491.854 73.5283 494.251 76.2444C496.696 79.0384 498.586 82.271 499.82 85.7697C501.133 89.5292 501.784 93.4867 501.746 97.4675V99.7235C501.784 103.742 501.147 107.738 499.862 111.547C498.658 115.076 496.781 118.339 494.334 121.156C491.931 123.895 488.978 126.101 485.666 127.631C482.089 129.189 478.221 129.972 474.318 129.929C470.136 129.978 466.002 129.033 462.258 127.172C458.564 125.314 455.504 122.407 453.464 118.816C451.009 114.223 449.702 109.106 449.654 103.901L454.427 111.129V149.732L439.394 149.648ZM470.507 117.395C473.473 117.441 476.386 116.613 478.882 115.014C481.354 113.391 483.314 111.102 484.536 108.413C485.949 105.395 486.651 102.094 486.587 98.7626C486.678 95.4023 485.975 92.0677 484.536 89.0284C483.285 86.4137 481.327 84.1998 478.882 82.6364C476.374 81.0705 473.466 80.2583 470.507 80.2969C467.679 80.2771 464.889 80.9514 462.384 82.2604C459.86 83.5596 457.755 85.5436 456.312 87.984C454.703 90.7135 453.904 93.843 454.009 97.008V101.186C453.928 104.222 454.744 107.214 456.354 109.792C457.896 112.128 460.016 114.028 462.509 115.307C464.975 116.617 467.714 117.332 470.507 117.395Z" fill="white"/>
<path d="M536.879 130.138C532.333 130.234 527.82 129.351 523.647 127.548C520.026 125.949 516.808 123.565 514.225 120.571C511.769 117.699 509.867 114.399 508.614 110.837C507.369 107.292 506.732 103.563 506.729 99.8073V97.7602C506.722 93.9352 507.359 90.1362 508.614 86.5219C509.836 82.946 511.742 79.6404 514.225 76.7877C516.793 73.9013 519.948 71.594 523.479 70.0197C527.437 68.2854 531.72 67.4164 536.042 67.4713C541.657 67.263 547.208 68.7166 551.996 71.6491C556.17 74.3028 559.519 78.0642 561.669 82.5113C563.82 87.0412 564.922 91.9958 564.894 97.0082V102.398H513.094V93.2482H555.556L550.908 97.7602C550.993 94.4954 550.438 91.2455 549.274 88.1931C548.32 85.6883 546.608 83.5419 544.375 82.0518C541.864 80.508 538.947 79.7512 536 79.8793C533.047 79.7939 530.134 80.5785 527.625 82.1353C525.251 83.7196 523.423 85.9953 522.391 88.6527C521.132 91.9014 520.52 95.364 520.59 98.8464C520.536 102.184 521.118 105.502 522.307 108.622C523.372 111.33 525.224 113.658 527.625 115.307C530.343 117.002 533.508 117.846 536.712 117.73C539.85 117.862 542.96 117.094 545.673 115.516C547.762 114.3 549.339 112.371 550.112 110.085H563.931C563.138 113.941 561.429 117.552 558.948 120.613C556.469 123.691 553.259 126.103 549.609 127.631C545.587 129.339 541.251 130.193 536.879 130.138Z" fill="white"/>
<path d="M606.978 130.138C600.538 130.35 594.151 128.912 588.428 125.96C583.477 123.274 579.461 119.151 576.912 114.137C574.169 108.597 572.819 102.475 572.976 96.2978V49.3813H588.302V97.0498C588.224 100.463 588.971 103.845 590.479 106.909C591.841 109.706 594.054 112.002 596.803 113.468C599.965 115.008 603.438 115.808 606.957 115.808C610.476 115.808 613.949 115.008 617.112 113.468C619.826 112.003 622.009 109.723 623.351 106.951C624.838 103.866 625.57 100.472 625.487 97.0498V49.3813H640.813V96.256C640.97 102.419 639.664 108.532 637.003 114.095C634.498 119.113 630.507 123.241 625.571 125.918C619.838 128.892 613.436 130.345 606.978 130.138Z" fill="white"/>
<path d="M654.632 128.049V49.3813H670V128.049H654.632Z" fill="white"/>
</g>
<defs>
<clipPath id="clip0_193_328">
<rect width="670" height="188" fill="white"/>
</clipPath>
</defs>
</svg>
