<svg width="358" height="133" viewBox="0 0 358 133" fill="none" xmlns="http://www.w3.org/2000/svg">
<g filter="url(#filter0_d_1_99)">
<rect x="4" width="350" height="125" rx="10" fill="black"/>
<path d="M130.178 31.768C131.474 31.096 132.266 29.944 132.266 28.36C132.266 25.672 130.01 23.68 127.034 23.68H120.026V40H127.322C130.298 40 132.53 37.984 132.53 35.296C132.53 33.592 131.618 32.416 130.178 31.768ZM127.034 26.08C128.738 26.08 129.746 27.04 129.746 28.36C129.746 29.656 128.714 30.64 127.034 30.64H122.546V26.08H127.034ZM127.322 37.6H122.546V33.04H127.322C129.002 33.04 130.01 33.976 130.01 35.296C130.01 36.616 129.002 37.6 127.322 37.6ZM140.55 27.736C138.75 27.736 136.878 28.744 135.846 30.256L137.79 31.624C138.366 30.64 139.542 29.92 140.742 29.92C142.206 29.92 142.926 30.952 143.118 32.08L139.374 32.8C137.262 33.208 135.414 34.312 135.414 36.616C135.414 38.92 137.238 40.24 139.35 40.24C141.03 40.24 142.446 39.4 143.166 38.344V40H145.566V32.68C145.566 29.704 143.55 27.736 140.55 27.736ZM139.926 38.032C138.702 38.032 137.814 37.408 137.814 36.52C137.814 35.584 138.798 35.08 139.83 34.84L143.166 34.168V35.032C143.166 36.88 141.63 38.032 139.926 38.032ZM158.123 36.208C157.379 37.312 156.155 37.96 154.883 37.96C152.771 37.96 151.235 36.208 151.235 33.976C151.235 31.744 152.771 29.992 154.883 29.992C156.155 29.992 157.379 30.64 158.123 31.744L160.139 30.568C158.987 28.84 157.043 27.712 154.859 27.712C151.379 27.712 148.835 30.496 148.835 33.976C148.835 37.456 151.379 40.24 154.859 40.24C157.043 40.24 158.987 39.112 160.139 37.384L158.123 36.208ZM174.088 28H170.92L165.688 33.448V23.2H163.288V40H165.688V36.448L167.608 34.504L171.28 40H174.088L169.36 32.752L174.088 28ZM186.545 32.968C186.137 29.296 183.617 27.76 181.049 27.76C177.569 27.76 175.265 30.544 175.265 34C175.265 37.456 177.569 40.24 181.049 40.24C183.233 40.24 185.297 39.112 186.329 37.384L184.313 36.208C183.737 37.24 182.465 37.96 181.025 37.96C179.249 37.96 178.097 36.904 177.785 35.104H186.545C186.617 34.336 186.617 33.616 186.545 32.968ZM180.977 30.04C182.465 30.04 184.073 30.88 184.145 32.944H177.761C178.073 31.144 179.153 30.04 180.977 30.04ZM198.459 23.2V29.728C197.787 28.6 196.515 27.76 194.787 27.76C191.715 27.76 189.387 30.352 189.363 34C189.339 37.72 191.715 40.24 194.763 40.24C196.587 40.24 197.835 39.328 198.459 38.128V40H200.859V23.2H198.459ZM195.171 37.96C193.083 37.96 191.763 36.256 191.763 34C191.763 31.744 193.083 30.04 195.171 30.04C197.259 30.04 198.579 31.744 198.579 34C198.579 36.256 197.259 37.96 195.171 37.96ZM224.47 34C224.446 30.352 222.118 27.76 219.046 27.76C217.318 27.76 216.046 28.6 215.374 29.728V23.2H212.974V40H215.374V38.128C215.998 39.328 217.246 40.24 219.07 40.24C222.118 40.24 224.494 37.72 224.47 34ZM218.662 37.96C216.574 37.96 215.254 36.256 215.254 34C215.254 31.744 216.574 30.04 218.662 30.04C220.75 30.04 222.07 31.744 222.07 34C222.07 36.256 220.75 37.96 218.662 37.96ZM236.419 28L232.915 36.424L229.171 28H226.531L231.643 39.448L229.411 44.8H231.955L238.891 28H236.419Z" fill="white"/>
<g clip-path="url(#clip0_1_99)">
<path fill-rule="evenodd" clip-rule="evenodd" d="M29 109H89V49H29V109Z" fill="#F05F22"/>
<path fill-rule="evenodd" clip-rule="evenodd" d="M61.4375 81.9812V95.3125H56.375V81.9812L43.4563 62.6875H49.625L58.9251 76.9375L68.1875 62.6875H74.3563L61.4375 81.9812Z" fill="white"/>
<path fill-rule="evenodd" clip-rule="evenodd" d="M124.185 69.1219C118.635 69.1219 114.473 73.4157 114.473 78.9657C114.473 84.5157 118.635 88.8469 124.185 88.8469C127.748 88.8469 130.841 87.0094 132.51 83.9157L137.273 86.7469C134.61 91.3032 129.623 94.2657 124.185 94.2657C115.635 94.2469 108.848 87.4594 108.848 78.9657C108.848 70.4532 115.635 63.6657 124.185 63.6657C129.679 63.6657 134.61 66.5907 137.273 71.1844L132.51 74.0157C130.823 70.9219 127.748 69.1219 124.185 69.1219Z" fill="white"/>
<path fill-rule="evenodd" clip-rule="evenodd" d="M155.573 82.8282C155.573 79.3594 153.041 76.7344 149.779 76.7344C146.423 76.7344 143.891 79.3594 143.891 82.8282C143.891 86.2969 146.423 88.9219 149.779 88.9219C152.985 88.9219 155.573 86.2969 155.573 82.8282ZM138.435 82.8282C138.435 76.5657 143.46 71.5407 149.779 71.5407C156.004 71.5407 161.029 76.5657 161.029 82.8282C161.029 89.0907 156.004 94.1157 149.779 94.1157C143.46 94.1157 138.435 89.0907 138.435 82.8282Z" fill="white"/>
<path fill-rule="evenodd" clip-rule="evenodd" d="M196.429 81.0282V93.6282H190.991V81.9844C190.991 78.7219 189.398 76.6594 186.998 76.6594C184.541 76.6594 182.741 78.7219 182.741 81.9844V93.6282H177.491V81.9844C177.491 78.7219 175.841 76.6594 173.423 76.6594C171.004 76.6594 169.241 78.7219 169.241 81.9844V93.6282H163.804V72.0657H169.241V74.8219C170.573 72.7594 172.635 71.4657 175.166 71.4657C177.923 71.4657 180.098 73.0219 181.429 75.4407C182.798 73.2844 185.329 71.4657 188.516 71.4657C193.298 71.4657 196.429 75.6844 196.429 81.0282Z" fill="white"/>
<path fill-rule="evenodd" clip-rule="evenodd" d="M215.76 83.0532C215.76 79.4532 213.529 76.8657 210.398 76.8657C207.341 76.8657 205.035 79.3219 205.035 82.9969C205.035 86.6532 207.398 89.1282 210.491 89.1282C213.529 89.1094 215.76 86.5782 215.76 83.0532ZM211.541 94.1907C208.541 94.1907 206.329 92.8219 205.054 90.9282V93.6282H199.616V63.6282H205.054V74.6907C206.366 72.9282 208.579 71.6532 211.448 71.6532C217.016 71.6532 221.273 76.4532 221.366 82.9219C221.46 89.4657 217.11 94.1907 211.541 94.1907Z" fill="white"/>
<path fill-rule="evenodd" clip-rule="evenodd" d="M223.616 93.6282H229.054V72.0657H223.616V93.6282ZM222.923 65.9532C222.923 64.1157 224.46 62.7282 226.316 62.7282C228.116 62.7282 229.616 64.0969 229.616 65.9532C229.616 67.7907 228.116 69.1782 226.316 69.1782C224.479 69.1594 222.923 67.7907 222.923 65.9532Z" fill="white"/>
<path fill-rule="evenodd" clip-rule="evenodd" d="M252.491 81.1219V93.6282H247.241V82.2844C247.241 78.8157 245.423 76.6594 242.798 76.6594C239.91 76.6594 237.866 79.2844 237.866 82.3782V93.6282H232.616V72.0657H237.866V74.7844C239.329 72.7594 241.673 71.4657 244.41 71.4657C249.248 71.4657 252.491 75.5907 252.491 81.1219Z" fill="white"/>
<path fill-rule="evenodd" clip-rule="evenodd" d="M268.991 84.0657V83.5969L263.498 84.6657C261.66 85.0969 260.535 86.0344 260.535 87.2907C260.535 88.6219 261.754 89.6157 263.76 89.5594C266.648 89.4657 268.991 86.9532 268.991 84.0657ZM274.241 80.6157V93.6282H268.991V91.1344C267.398 92.8594 264.904 94.1344 262.148 94.1907C258.491 94.1907 255.266 91.7907 255.266 87.6657C255.266 83.7657 258.191 81.5344 262.541 80.6719L268.86 79.4719C268.429 77.6719 267.06 76.3032 264.979 76.3032C262.916 76.3032 260.985 77.5969 259.823 79.2282L255.866 76.3594C257.891 73.5282 261.454 71.6344 264.998 71.6344C270.285 71.5969 274.241 75.2532 274.241 80.6157Z" fill="white"/>
<path fill-rule="evenodd" clip-rule="evenodd" d="M285.304 76.9407V85.9782C285.304 87.7407 286.073 88.5469 287.666 88.5469H290.366V93.6094H286.916C282.323 93.6094 280.054 91.3594 280.054 86.6344V76.9407H276.116V72.0657H279.866V66.7407L285.304 65.0719V72.0657H290.366V76.9407H285.304Z" fill="white"/>
<path fill-rule="evenodd" clip-rule="evenodd" d="M309.285 82.8282C309.285 79.3594 306.754 76.7344 303.491 76.7344C300.135 76.7344 297.604 79.3594 297.604 82.8282C297.604 86.2969 300.135 88.9219 303.491 88.9219C306.698 88.9219 309.285 86.2969 309.285 82.8282ZM292.148 82.8282C292.148 76.5657 297.173 71.5407 303.491 71.5407C309.716 71.5407 314.741 76.5657 314.741 82.8282C314.741 89.0907 309.716 94.1157 303.491 94.1157C297.173 94.1157 292.148 89.0907 292.148 82.8282Z" fill="white"/>
<path fill-rule="evenodd" clip-rule="evenodd" d="M329.741 71.5969V76.8282C324.885 76.8282 322.804 79.1907 322.804 82.2844V93.6282H317.554V72.0657H322.804V74.7657C324.285 72.8344 326.666 71.5969 329.741 71.5969Z" fill="white"/>
</g>
</g>
<defs>
<filter id="filter0_d_1_99" x="0" y="0" width="358" height="133" filterUnits="userSpaceOnUse" color-interpolation-filters="sRGB">
<feFlood flood-opacity="0" result="BackgroundImageFix"/>
<feColorMatrix in="SourceAlpha" type="matrix" values="0 0 0 0 0 0 0 0 0 0 0 0 0 0 0 0 0 0 127 0" result="hardAlpha"/>
<feOffset dy="4"/>
<feGaussianBlur stdDeviation="2"/>
<feComposite in2="hardAlpha" operator="out"/>
<feColorMatrix type="matrix" values="0 0 0 0 0 0 0 0 0 0 0 0 0 0 0 0 0 0 0.25 0"/>
<feBlend mode="normal" in2="BackgroundImageFix" result="effect1_dropShadow_1_99"/>
<feBlend mode="normal" in="SourceGraphic" in2="effect1_dropShadow_1_99" result="shape"/>
</filter>
<clipPath id="clip0_1_99">
<rect width="300.75" height="60" fill="white" transform="translate(29 49)"/>
</clipPath>
</defs>
</svg>
