<svg width="200" height="200" viewBox="0 0 200 200" fill="none" xmlns="http://www.w3.org/2000/svg">
<rect width="200" height="200" fill="white"/>
<g clip-path="url(#clip0_27_124)">
<path d="M128.311 138.001H70.5749C67.241 138.001 64.0436 136.689 61.6861 134.353C59.3286 132.018 58.0042 128.85 58.0042 125.547V113.387C48.487 112.005 39.8026 107.239 33.5726 99.9783C27.3426 92.7177 23.9927 83.4589 24.1484 73.9307C24.3594 66.2112 26.8354 58.7199 31.2739 52.3719C35.7124 46.0239 41.9212 41.0941 49.1416 38.1851C55.3729 35.5691 62.208 34.6925 68.9063 35.6502C72.5871 30.7879 77.3557 26.8375 82.8377 24.1093C88.3196 21.381 94.3654 19.9493 100.5 19.9265C106.648 19.9062 112.714 21.3189 118.209 24.0503C123.703 26.7817 128.473 30.7554 132.131 35.6502C138.805 34.7061 145.613 35.5825 151.821 38.1851C159.068 41.057 165.311 45.9624 169.783 52.2991C174.256 58.6359 176.764 66.1284 177 73.8572C177.151 83.777 173.507 93.3859 166.8 100.753C160.093 108.12 150.82 112.699 140.845 113.57V125.473C140.86 127.113 140.547 128.74 139.923 130.259C139.3 131.778 138.379 133.16 137.214 134.325C136.048 135.49 134.662 136.414 133.134 137.045C131.606 137.676 129.967 138.001 128.311 138.001ZM68.9804 114.783V125.547C68.9898 125.924 69.1452 126.283 69.4144 126.55C69.6836 126.816 70.046 126.97 70.4266 126.98H128.311C128.689 126.97 129.047 126.815 129.31 126.547C129.573 126.28 129.721 125.921 129.721 125.547V114.085C122.047 111.7 115.318 106.999 110.475 100.639L119.189 93.769C123.535 98.6605 129.536 101.809 136.062 102.623H137.248C141.026 102.623 144.766 101.879 148.25 100.434C151.735 98.9882 154.894 96.8705 157.545 94.2036C160.195 91.5368 162.284 88.3743 163.688 84.9001C165.093 81.4259 165.786 77.7095 165.727 73.9674C165.48 68.3931 163.623 63.0062 160.375 58.4474C157.128 53.8886 152.627 50.3496 147.409 48.2512C144.945 47.2003 142.33 46.5431 139.659 46.3041C141.091 53.0074 140.769 59.9621 138.725 66.5077C136.681 73.0533 132.981 78.9725 127.978 83.7029L120.265 75.7308C124.047 72.0162 126.606 67.2554 127.607 62.0735C128.609 56.8916 128.005 51.5308 125.875 46.6951C123.745 41.8593 120.189 37.7747 115.674 34.9774C111.159 32.1802 105.895 30.8011 100.574 31.0213C93.7641 30.9709 87.1702 33.3879 82.0333 37.8177C87.9694 41.5362 92.8229 46.7255 96.1137 52.8724C99.4046 59.0193 101.019 65.9108 100.797 72.8653L89.6721 72.6449C89.4596 66.8032 87.3969 61.1759 83.7763 56.5604C80.1557 51.9448 75.1609 48.5751 69.4996 46.9286C64.1061 45.6897 58.454 46.1917 53.3689 48.3614C48.1547 50.4616 43.6594 54.002 40.4184 58.5612C37.1773 63.1204 35.3269 68.5063 35.0876 74.0776C35.0287 77.7873 35.7099 81.4719 37.092 84.92C38.4741 88.3682 40.53 91.5119 43.1416 94.171C45.7532 96.83 48.8691 98.9518 52.3105 100.415C55.7519 101.878 59.451 102.653 63.1956 102.696H64.0856C71.552 102.228 78.5265 98.8462 83.4795 93.2914L92.0825 100.271C86.4573 107.703 78.3012 112.859 69.1288 114.783H68.9804Z" fill="black"/>
<path d="M81.1062 178.963C80.3579 178.965 79.6171 178.816 78.9287 178.525C78.2403 178.235 77.6186 177.809 77.1013 177.273L68.2017 168.236C67.3888 167.434 66.7438 166.481 66.3037 165.431C65.8636 164.381 65.6371 163.256 65.6371 162.119C65.6371 160.982 65.8636 159.857 66.3037 158.807C66.7438 157.758 67.3888 156.804 68.2017 156.002L77.3609 147.149C78.4086 146.125 79.8206 145.552 81.2916 145.552C82.7627 145.552 84.1746 146.125 85.2223 147.149C85.7425 147.658 86.1555 148.264 86.4374 148.933C86.7193 149.601 86.8645 150.318 86.8645 151.043C86.8645 151.767 86.7193 152.484 86.4374 153.153C86.1555 153.821 85.7425 154.428 85.2223 154.937L77.8059 162.284L85.2223 169.632C85.9888 170.407 86.5074 171.388 86.7132 172.454C86.919 173.519 86.8027 174.621 86.3791 175.622C85.9554 176.622 85.2431 177.476 84.3315 178.077C83.4199 178.678 82.3495 178.999 81.2545 179L81.1062 178.963Z" fill="black"/>
<path d="M120.228 178.963C119.479 178.965 118.739 178.816 118.05 178.525C117.362 178.235 116.74 177.809 116.223 177.273C115.19 176.235 114.611 174.837 114.611 173.379C114.611 171.922 115.19 170.523 116.223 169.485L123.639 162.137L116.223 154.79C115.19 153.743 114.62 152.332 114.637 150.868C114.655 149.404 115.258 148.006 116.315 146.983C117.373 145.96 118.797 145.395 120.275 145.412C121.752 145.43 123.163 146.028 124.195 147.075L133.132 156.149C134.756 157.779 135.666 159.976 135.666 162.266C135.666 164.556 134.756 166.753 133.132 168.383L124.27 177.384C123.74 177.906 123.108 178.315 122.413 178.587C121.718 178.858 120.974 178.986 120.228 178.963Z" fill="black"/>
<path d="M98.0155 178.963C97.5236 179.033 97.0242 179.033 96.5322 178.963C95.1409 178.546 93.9714 177.603 93.2773 176.338C92.5832 175.072 92.4204 173.587 92.8241 172.204L98.9426 149.867C99.1038 149.137 99.4134 148.447 99.8524 147.839C100.291 147.231 100.851 146.718 101.496 146.331C102.142 145.944 102.86 145.691 103.607 145.587C104.354 145.484 105.115 145.532 105.843 145.729C106.571 145.926 107.251 146.268 107.841 146.734C108.431 147.199 108.92 147.779 109.277 148.438C109.634 149.096 109.852 149.82 109.917 150.565C109.983 151.309 109.895 152.059 109.659 152.769L103.541 175.106C103.181 176.264 102.443 177.271 101.443 177.969C100.443 178.667 99.2376 179.017 98.0155 178.963Z" fill="black"/>
</g>
<defs>
<clipPath id="clip0_27_124">
<rect width="153" height="159" fill="white" transform="translate(24 20)"/>
</clipPath>
</defs>
</svg>
