<svg width="200" height="200" viewBox="0 0 200 200" fill="none" xmlns="http://www.w3.org/2000/svg">
<path d="M81.6006 160.783C80.9714 160.149 80.2225 159.646 79.3973 159.302C78.5721 158.959 77.6868 158.782 76.7927 158.782C75.8986 158.782 75.0133 158.959 74.1881 159.302C73.3628 159.646 72.614 160.149 71.9848 160.783L60.811 171.709C58.8129 173.707 57.6908 176.414 57.6908 179.237C57.6908 182.059 58.8129 184.767 60.811 186.765L71.6732 197.957C72.3093 198.609 73.071 199.127 73.9125 199.478C74.754 199.829 75.658 200.007 76.5701 200C78.3341 200.01 80.0306 199.324 81.2889 198.09C81.9256 197.459 82.4308 196.708 82.7756 195.881C83.1204 195.054 83.2978 194.167 83.2978 193.272C83.2978 192.376 83.1204 191.489 82.7756 190.662C82.4308 189.835 81.9256 189.084 81.2889 188.453L72.3855 179.57L81.2889 170.687C81.993 170.077 82.5629 169.328 82.9631 168.487C83.3632 167.647 83.5849 166.733 83.6141 165.803C83.6434 164.873 83.4796 163.947 83.1331 163.083C82.7866 162.219 82.2648 161.436 81.6006 160.783Z" fill="#F0A500"/>
<path d="M129.412 160.783C128.783 160.149 128.034 159.646 127.209 159.302C126.384 158.959 125.499 158.782 124.604 158.782C123.71 158.782 122.825 158.959 122 159.302C121.175 159.646 120.426 160.149 119.797 160.783C118.522 162.064 117.806 163.796 117.806 165.602C117.806 167.407 118.522 169.139 119.797 170.421L128.7 179.303L119.797 188.186C118.535 189.466 117.828 191.188 117.828 192.983C117.828 194.777 118.535 196.5 119.797 197.78C120.433 198.432 121.194 198.949 122.036 199.3C122.877 199.651 123.781 199.829 124.694 199.823C126.458 199.833 128.154 199.146 129.412 197.913L140.631 186.987C142.618 184.983 143.733 182.278 143.733 179.459C143.733 176.64 142.618 173.935 140.631 171.931L129.412 160.783Z" fill="#F0A500"/>
<path d="M105.996 158.828C105.131 158.593 104.228 158.531 103.338 158.645C102.449 158.759 101.59 159.047 100.813 159.492C100.035 159.938 99.3535 160.533 98.8067 161.242C98.26 161.951 97.859 162.761 97.6268 163.625L90.1033 191.162C89.6257 192.899 89.8591 194.755 90.7523 196.32C91.6456 197.886 93.1255 199.034 94.8667 199.512C95.4571 199.598 96.057 199.598 96.6474 199.512C98.1565 199.585 99.647 199.153 100.881 198.284C102.116 197.415 103.023 196.158 103.459 194.715L110.937 167.178C111.171 166.306 111.228 165.396 111.105 164.502C110.982 163.607 110.682 162.746 110.222 161.969C109.762 161.192 109.152 160.514 108.426 159.974C107.7 159.435 106.874 159.046 105.996 158.828Z" fill="#F0A500"/>
<path d="M193.74 71.5995C193.74 71.0665 193.74 70.5336 193.74 69.9562C193.74 69.3788 193.74 68.3573 193.74 67.5134V66.4919C193.7 63.6116 193.387 60.7414 192.805 57.92C192.197 54.8766 191.287 51.9011 190.089 49.0372L189.778 48.371C189.333 47.3939 188.843 46.4168 188.353 45.4396L187.507 43.8851L186.394 42.0642C184.913 39.7285 183.246 37.5154 181.409 35.4465L180.518 34.5139L178.782 32.7816L177.313 31.4493L175.933 30.2057C172.062 27.0284 167.742 24.4392 163.112 22.522C155.509 19.2915 147.164 18.201 138.984 19.3687C131.992 9.96695 121.793 3.44359 110.311 1.02982C98.8292 -1.38395 86.8589 0.478857 76.6593 6.26657C75.8187 6.69714 75.0014 7.17151 74.2108 7.68778L73.1424 8.44281C72.0295 9.19785 70.9165 9.99734 69.8927 10.8412L68.0229 12.5289C67.5332 12.973 66.999 13.4172 66.5539 13.9057C64.8227 15.6099 63.2159 17.4356 61.746 19.3687C53.5655 18.2055 45.2218 19.2959 37.6176 22.522C32.9825 24.4476 28.6613 27.0523 24.7966 30.2501L23.4166 31.4493C22.9417 31.8342 22.452 32.2783 21.9475 32.7816C21.443 33.285 20.8643 33.8624 20.2113 34.5139L19.321 35.4909C17.5221 37.522 15.8848 39.6901 14.4241 41.9754C14.068 42.5972 13.6673 43.1745 13.3112 43.8407C12.955 44.507 12.7324 44.8178 12.4653 45.3508C12.1982 45.8838 11.486 47.305 11.0408 48.2821L10.7737 48.9484C9.56151 51.811 8.63696 54.7865 8.01361 57.8312C7.41669 60.6512 7.08876 63.5213 7.03422 66.403V67.5134C7.03422 68.3573 7.03422 69.1567 7.03422 69.9562C6.98859 70.503 6.98859 71.0526 7.03422 71.5995C7.03422 73.0651 7.34584 74.4864 7.56842 76.0409C7.58925 76.1285 7.58925 76.2197 7.56842 76.3073C9.36822 86.1368 14.1944 95.1621 21.3753 102.127C28.5563 109.093 37.7349 113.651 47.634 115.17H48.1682V134.134C48.1682 138.292 49.8239 142.28 52.7709 145.22C55.718 148.161 59.715 149.812 63.8828 149.812H134.087C138.254 149.812 142.251 148.161 145.199 145.22C148.146 142.28 149.801 138.292 149.801 134.134V115.258C151.115 115.164 152.422 115.001 153.719 114.77H154.03C163.682 113.093 172.592 108.522 179.574 101.667C186.557 94.8118 191.281 85.9968 193.117 76.3962C193.117 76.3962 193.117 76.3962 193.117 76.1297C193.384 74.5308 193.606 73.0651 193.74 71.5995ZM134.087 136.399H64.2835C64.005 136.405 63.7281 136.356 63.4691 136.254C63.2101 136.151 62.9741 135.998 62.7751 135.804C62.5761 135.61 62.418 135.377 62.3101 135.121C62.2021 134.865 62.1466 134.59 62.1466 134.312V115.036C70.8275 113.772 78.9913 110.146 85.7408 104.555L90.9493 100.113L82.2685 89.7204L77.0599 94.1618C72.1787 98.1231 66.308 100.683 60.0785 101.566C53.8489 102.45 47.4958 101.623 41.7015 99.1757C35.9073 96.7282 30.8908 92.7522 27.1908 87.6746C23.4909 82.597 21.2473 76.6098 20.701 70.3559V69.6009C20.6561 68.7872 20.6561 67.9717 20.701 67.1581C20.701 66.7583 20.701 66.3142 20.701 65.9145C20.701 64.8041 20.701 63.6938 21.0127 62.6278C21.3243 61.5619 21.0126 61.6951 21.2352 61.251C22.2066 56.5215 24.1222 52.0354 26.8678 48.06C29.6135 44.0846 33.1331 40.7012 37.2169 38.1114C42.5728 34.8217 48.7344 33.0697 55.0239 33.0482C64.1823 33.0599 72.9622 36.6949 79.4382 43.1558C85.9141 49.6167 89.5575 58.3763 89.5693 67.5134V74.3087H103.147V67.5134C103.141 58.4201 100.554 49.5144 95.6849 41.8272C90.8161 34.14 83.8647 27.9857 75.6354 24.0765C75.9025 23.7656 76.1696 23.4103 76.4812 23.0994C79.3254 20.4061 82.6069 18.2135 86.186 16.615C89.6246 15.1982 93.2555 14.3001 96.9592 13.9502C103.191 13.306 109.481 14.3625 115.158 17.0071C120.835 19.6516 125.686 23.7849 129.192 28.9654C132.697 34.1459 134.727 40.1791 135.064 46.4208C135.401 52.6625 134.032 58.8783 131.104 64.4044L127.943 70.4003L139.918 76.7515L143.124 70.7556C147.61 62.296 149.456 52.6898 148.421 43.1746C148.078 39.724 147.331 36.3254 146.195 33.0482C152.39 33.1027 158.453 34.8375 163.735 38.0669C167.819 40.6567 171.339 44.0401 174.084 48.0155C176.83 51.9909 178.745 56.4771 179.717 61.2066C179.816 61.6612 179.89 62.1208 179.939 62.5834C180.109 63.6568 180.214 64.7396 180.251 65.8256C180.251 66.2698 180.251 66.714 180.251 67.1137C180.251 67.5134 180.251 68.757 180.251 69.5565C180.227 69.8076 180.227 70.0604 180.251 70.3115C179.658 76.7291 177.304 82.8595 173.448 88.0304C169.592 93.2012 164.383 97.2127 158.393 99.6247H158.081C157.191 99.98 156.301 100.246 155.41 100.513L153.941 100.913L152.205 101.268L150.246 101.579H148.644H146.997H144.103H142.5C135.699 100.995 129.224 98.4141 123.892 94.1618L118.639 89.7204L109.736 100.202L114.989 104.643C121.063 109.62 128.259 113.049 135.956 114.637V134.134C136.006 134.681 135.838 135.226 135.488 135.65C135.138 136.074 134.634 136.343 134.087 136.399Z" fill="#F0A500"/>
</svg>
