<svg width="32" height="32" viewBox="0 0 32 32" fill="none" xmlns="http://www.w3.org/2000/svg">
<g clip-path="url(#clip0_300_262)">
<path d="M32 0H0V32H32V0Z" fill="#F0A500"/>
<mask id="mask0_300_262" style="mask-type:luminance" maskUnits="userSpaceOnUse" x="3" y="2" width="27" height="28">
<path d="M29.25 2H3V30H29.25V2Z" fill="white"/>
</mask>
<g mask="url(#mask0_300_262)">
<path d="M13.475 24.543C13.3866 24.4542 13.2815 24.3837 13.1656 24.3356C13.0498 24.2875 12.9255 24.2627 12.8 24.2627C12.6744 24.2627 12.5502 24.2875 12.4343 24.3356C12.3184 24.3837 12.2133 24.4542 12.125 24.543L10.5562 26.0736C10.2757 26.3536 10.1182 26.7329 10.1182 27.1283C10.1182 27.5237 10.2757 27.903 10.5562 28.183L12.0812 29.751C12.1705 29.8423 12.2775 29.9148 12.3956 29.964C12.5138 30.0132 12.6407 30.0381 12.7687 30.0372C13.0164 30.0386 13.2546 29.9424 13.4312 29.7696C13.5206 29.6812 13.5915 29.576 13.6399 29.4601C13.6883 29.3442 13.7133 29.22 13.7133 29.0945C13.7133 28.969 13.6883 28.8448 13.6399 28.7289C13.5915 28.6131 13.5206 28.5079 13.4312 28.4194L12.1812 27.175L13.4312 25.9305C13.5301 25.845 13.6101 25.7401 13.6663 25.6223C13.7224 25.5046 13.7536 25.3765 13.7577 25.2463C13.7618 25.116 13.7388 24.9862 13.6901 24.8652C13.6415 24.7442 13.5682 24.6345 13.475 24.543Z" fill="white"/>
<path d="M20.1876 24.543C20.0992 24.4542 19.9941 24.3837 19.8782 24.3356C19.7624 24.2875 19.6381 24.2627 19.5126 24.2627C19.387 24.2627 19.2627 24.2875 19.1469 24.3356C19.031 24.3837 18.9259 24.4542 18.8376 24.543C18.6586 24.7225 18.5581 24.9651 18.5581 25.2181C18.5581 25.471 18.6586 25.7137 18.8376 25.8932L20.0876 27.1376L18.8376 28.3821C18.6604 28.5613 18.5612 28.8026 18.5612 29.0541C18.5612 29.3055 18.6604 29.5468 18.8376 29.7261C18.9269 29.8174 19.0338 29.8899 19.1519 29.9391C19.2701 29.9883 19.397 30.0132 19.5251 30.0123C19.7727 30.0137 20.0109 29.9175 20.1876 29.7447L21.7626 28.2141C22.0416 27.9333 22.1981 27.5543 22.1981 27.1594C22.1981 26.7645 22.0416 26.3855 21.7626 26.1047L20.1876 24.543Z" fill="white"/>
<path d="M16.9001 24.2693C16.7786 24.2364 16.6518 24.2276 16.5269 24.2436C16.402 24.2596 16.2816 24.2999 16.1724 24.3624C16.0632 24.4248 15.9675 24.5081 15.8907 24.6074C15.814 24.7068 15.7577 24.8202 15.7251 24.9413L14.6688 28.7991C14.6018 29.0425 14.6345 29.3025 14.7599 29.5218C14.8854 29.7412 15.0931 29.902 15.3376 29.9689C15.4205 29.981 15.5047 29.981 15.5876 29.9689C15.7995 29.9792 16.0087 29.9187 16.182 29.7969C16.3553 29.6751 16.4827 29.4991 16.5438 29.2969L17.5938 25.4391C17.6266 25.3169 17.6346 25.1895 17.6174 25.0642C17.6002 24.9389 17.558 24.8182 17.4934 24.7093C17.4288 24.6004 17.3431 24.5054 17.2412 24.4299C17.1394 24.3543 17.0234 24.2997 16.9001 24.2693Z" fill="white"/>
<path d="M29.2188 12.0489C29.2188 11.9742 29.2188 11.8995 29.2188 11.8187C29.2188 11.7378 29.2188 11.5947 29.2188 11.4764V11.3333C29.2132 10.9298 29.1693 10.5277 29.0875 10.1324C29.0021 9.70607 28.8744 9.2892 28.7063 8.88798L28.6625 8.79465C28.6 8.65776 28.5313 8.52087 28.4625 8.38398L28.3438 8.1662L28.1875 7.9111C27.9795 7.58387 27.7455 7.27383 27.4875 6.98398L27.3625 6.85332L27.1188 6.61065L26.9125 6.42399L26.7188 6.24977C26.1753 5.80464 25.5688 5.4419 24.9188 5.17331C23.8513 4.72073 22.6798 4.56795 21.5313 4.73154C20.5497 3.4144 19.1178 2.5005 17.5058 2.16234C15.8938 1.82418 14.2132 2.08515 12.7813 2.89599C12.6633 2.95631 12.5485 3.02277 12.4375 3.09509L12.2875 3.20087C12.1313 3.30665 11.975 3.41865 11.8313 3.53688L11.5688 3.77331C11.5 3.83554 11.425 3.89776 11.3625 3.9662C11.1195 4.20495 10.8939 4.46073 10.6875 4.73154C9.53901 4.56859 8.36761 4.72135 7.30002 5.17331C6.64928 5.44308 6.0426 5.80799 5.50002 6.25598L5.30627 6.42399C5.2396 6.47791 5.17085 6.54013 5.10002 6.61065C5.02918 6.68116 4.94794 6.76206 4.85627 6.85332L4.73127 6.9902C4.47871 7.27475 4.24885 7.57849 4.04377 7.89865C3.99377 7.98576 3.93752 8.06665 3.88752 8.15998C3.83752 8.25332 3.80627 8.29687 3.76877 8.37154C3.73127 8.4462 3.63127 8.64532 3.56877 8.78221L3.53127 8.87554C3.36109 9.27658 3.23129 9.69344 3.14377 10.12C3.05997 10.5151 3.01393 10.9172 3.00627 11.3209V11.4764C3.00627 11.5947 3.00627 11.7067 3.00627 11.8187C2.99986 11.8953 2.99986 11.9723 3.00627 12.0489C3.00627 12.2542 3.05002 12.4533 3.08127 12.6711C3.08419 12.6834 3.08419 12.6962 3.08127 12.7084C3.33395 14.0855 4.01152 15.3499 5.01969 16.3257C6.02786 17.3015 7.31649 17.9402 8.70627 18.1529H8.78127V20.8098C8.78127 21.3923 9.01371 21.951 9.42747 22.3629C9.84122 22.7748 10.4024 23.0062 10.9875 23.0062H20.8438C21.4289 23.0062 21.9901 22.7748 22.4038 22.3629C22.8176 21.951 23.05 21.3923 23.05 20.8098V18.1653C23.2344 18.1521 23.418 18.1292 23.6 18.0969H23.6438C24.9988 17.8619 26.2497 17.2216 27.23 16.2612C28.2104 15.3008 28.8735 14.0659 29.1313 12.7209C29.1313 12.7209 29.1313 12.7209 29.1313 12.6835C29.1688 12.4595 29.2 12.2542 29.2188 12.0489ZM20.8438 21.1271H11.0438C11.0047 21.1279 10.9658 21.121 10.9294 21.1066C10.8931 21.0923 10.8599 21.0709 10.832 21.0437C10.8041 21.0164 10.7819 20.9839 10.7667 20.948C10.7516 20.9121 10.7438 20.8736 10.7438 20.8346V18.1342C11.9625 17.9571 13.1087 17.4491 14.0563 16.6658L14.7875 16.0435L13.5688 14.5875L12.8375 15.2098C12.1522 15.7647 11.328 16.1233 10.4534 16.2471C9.57881 16.3709 8.68687 16.2551 7.87338 15.9122C7.0599 15.5693 6.35561 15.0123 5.83615 14.3009C5.3167 13.5896 5.00171 12.7508 4.92502 11.8747V11.7689C4.91871 11.6549 4.91871 11.5406 4.92502 11.4266C4.92502 11.3706 4.92502 11.3084 4.92502 11.2524C4.92502 11.0969 4.92502 10.9413 4.96877 10.792C5.01252 10.6426 4.96877 10.6613 5.00002 10.5991C5.13639 9.9365 5.40533 9.30802 5.79081 8.75108C6.17628 8.19414 6.67042 7.72014 7.24377 7.35732C7.9957 6.89645 8.86076 6.651 9.74377 6.64799C11.0296 6.64963 12.2622 7.15887 13.1714 8.06402C14.0806 8.96918 14.5921 10.1964 14.5938 11.4764V12.4284H16.5V11.4764C16.4992 10.2025 16.1359 8.95484 15.4524 7.8779C14.7688 6.80095 13.7929 5.93875 12.6375 5.3911C12.675 5.34754 12.7125 5.29776 12.7563 5.25421C13.1556 4.87688 13.6163 4.5697 14.1188 4.34576C14.6015 4.14728 15.1113 4.02146 15.6313 3.97243C16.5062 3.88218 17.3893 4.0302 18.1863 4.40069C18.9834 4.77118 19.6643 5.35023 20.1565 6.076C20.6487 6.80177 20.9337 7.647 20.981 8.52144C21.0283 9.39588 20.8361 10.2667 20.425 11.0409L19.9813 11.8809L21.6625 12.7707L22.1125 11.9306C22.7425 10.7455 23.0015 9.3997 22.8563 8.06665C22.8081 7.58324 22.7032 7.10711 22.5438 6.64799C23.4135 6.65562 24.2647 6.89867 25.0063 7.35109C25.5796 7.71391 26.0738 8.18791 26.4592 8.74485C26.8447 9.30179 27.1136 9.93028 27.25 10.5929C27.264 10.6566 27.2744 10.7209 27.2813 10.7858C27.3051 10.9361 27.3198 11.0878 27.325 11.24C27.325 11.3022 27.325 11.3644 27.325 11.4204C27.325 11.4764 27.325 11.6507 27.325 11.7627C27.3217 11.7978 27.3217 11.8332 27.325 11.8684C27.2417 12.7675 26.9112 13.6264 26.3699 14.3508C25.8286 15.0752 25.0973 15.6372 24.2563 15.9751H24.2125C24.0875 16.0249 23.9625 16.0622 23.8375 16.0995L23.6313 16.1555L23.3875 16.2053L23.1125 16.2489H22.8875H22.6563H22.25H22.025C21.0702 16.1671 20.1611 15.8055 19.4125 15.2098L18.675 14.5875L17.425 16.056L18.1625 16.6782C19.0154 17.3753 20.0256 17.8558 21.1063 18.0782V20.8098C21.1133 20.8864 21.0896 20.9627 21.0405 21.0221C20.9913 21.0815 20.9207 21.1192 20.8438 21.1271Z" fill="white"/>
</g>
</g>
<defs>
<clipPath id="clip0_300_262">
<rect width="32" height="32" rx="3" fill="white"/>
</clipPath>
</defs>
</svg>
